<?xml version="1.0" standalone="no"?>
<!DOCTYPE svg PUBLIC "-//W3C//DTD SVG 1.1//EN"
  "http://www.w3.org/Graphics/SVG/1.1/DTD/svg11.dtd">
<svg version="1.1" xmlns="http://www.w3.org/2000/svg" xmlns:xlink="http://www.w3.org/1999/xlink" width="1920" height="1080" viewBox="-1182.611111111111 -181 2302.222222222222 1295" id="ccdiagram"><filter id="grayscale"><feColorMatrix type="saturate" values="0"></feColorMatrix></filter><filter id="highlight"><feColorMatrix type="matrix" color-interpolation-filters="sRGB" values="0.20338 0 0 0 0
                0 0.58474 0 0 0
                0 0 0.97033 0 0
                0 0 0 1 0"></feColorMatrix></filter><defs><style type="text/css">@import url('https://fonts.googleapis.com/css2?family=Noto+Sans:ital,wght@0,100..900;1,100..900&amp;family=Roboto+Mono:ital,wght@0,100..700;1,100..700&amp;display=swap');</style></defs><g><rect x="-1182.611111111111" y="-181" width="2302.222222222222" height="1295" fill="#ffffff" id="interactionLayer"></rect><g style="pointer-events: none;"><g><pattern id="gridPatternMinor" x="0" y="37" width="128" height="74" patternUnits="userSpaceOnUse"><path d="M 0 0 L 128 74" stroke="#eeeeee" stroke-width="1"></path><path d="M 128 0 L 0 74" stroke="#eeeeee" stroke-width="1"></path></pattern><polygon points="-32 -847, 2239 467, -31 1779, -2303 466" fill="url(#gridPatternMinor)"></polygon></g></g><g pointer-events="auto"><g><g><g><polygon points="-545 333, 239 767, 240 805, -240 1082, -305 1082, -1041 638, -1041 602, -609 334" fill="#ffffff" stroke-width="2" stroke="#03a9f4"></polygon><polygon points="-576 352, 208 786, -272 1064, -1008 620" fill="#03a9f4"></polygon></g></g></g><g><g><g><polygon points="-176 102, 592 546, 593 582, 273 785, 209 787, -591 343, -592 305, -240 102" fill="#ffffff" stroke-width="2" stroke="#8bc34a"></polygon><polygon points="-208 120, 560 564, 240 768, -560 324" fill="#8bc34a"></polygon></g></g></g><g><g><g><polygon points="191 -149, 975 267, 978 304, 610 553, 544 555, -240 102, -240 65, 128 -148" fill="#ffffff" stroke-width="2" stroke="#ff9800"></polygon><polygon points="160 -129, 944 287, 576 537, -208 83" fill="#ff9800"></polygon></g></g></g></g><g style="pointer-events: none;"><g><pattern id="gridPatternMajor" x="0" y="37" width="128" height="74" patternUnits="userSpaceOnUse"><path d="M 64 0 L 128 37 64 74 0 37 z" stroke="#54626f" stroke-width="1" fill="none"></path></pattern><polygon points="-32 -847, 2239 467, -31 1779, -2303 466" fill="url(#gridPatternMajor)"></polygon></g></g><g pointer-events="auto"><g></g><g></g><g></g><g></g><g></g><g></g><g></g><g></g><g></g><g></g><g></g><g></g><g></g><g></g><g></g></g><g pointer-events="auto"></g><g pointer-events="auto"></g><g pointer-events="auto"></g><g pointer-events="auto"></g><g pointer-events="auto"></g><g pointer-events="auto"></g><g pointer-events="auto"></g><g pointer-events="auto"></g><g pointer-events="auto"></g><g pointer-events="auto"></g><g pointer-events="none"></g><g pointer-events="auto"><g id="9dd1bcd4-dc01-424c-91f3-de2a5989f41f-c30708a9-386f-40b6-b82e-2fdbcfc21c41"><g cursor="pointer"><line x1="-304" y1="638" x2="-448" y2="740" stroke="red" stroke-width="14" opacity="0"></line><line x1="-304" y1="638" x2="-448" y2="740" stroke="#000000" stroke-width="8" stroke-linecap="round"></line></g></g><g id="12ea3a1f-bd9c-4cd9-9fe5-5c3e5c9d9f1e-917df2ac-fc3e-4e78-806e-569bb4e84917"><g cursor="pointer"><line x1="176" y1="638" x2="160" y2="611" stroke="red" stroke-width="14" opacity="0"></line><line x1="176" y1="638" x2="160" y2="611" stroke="#000000" stroke-width="8" stroke-linecap="round"></line></g></g><g id="a9d25025-6f6c-4a0c-a160-d54d6467e7e6-12ea3a1f-bd9c-4cd9-9fe5-5c3e5c9d9f1e"><g cursor="pointer"><line x1="0" y1="722" x2="192" y2="722" stroke="red" stroke-width="14" opacity="0"></line><line x1="0" y1="722" x2="192" y2="722" stroke="#000000" stroke-width="8" stroke-linecap="round"></line></g></g><g id="d7629b9b-963a-4564-b984-1dba3dbb1a63-80c8e59d-68f2-4432-8530-58d6378545a3"><g cursor="pointer"><line x1="336" y1="268" x2="608" y2="296" stroke="red" stroke-width="14" opacity="0"></line><line x1="336" y1="268" x2="608" y2="296" stroke="#000000" stroke-width="8" stroke-linecap="round"></line></g></g><g id="80ac389f-bd97-4385-ad33-969498f2469e-557d8842-5786-4ccf-8ca7-ad460164ff6f"><g cursor="pointer"><line x1="-176" y1="823" x2="-48" y2="786" stroke="red" stroke-width="14" opacity="0"></line><line x1="-176" y1="823" x2="-48" y2="786" stroke="#000000" stroke-width="8" stroke-linecap="round"></line></g></g><g id="d330e511-362b-423e-8a9f-5c767782491c-c7bb6863-2daf-4669-8eaf-77def200e6c1"><g cursor="pointer"><line x1="-592" y1="731" x2="-560" y2="712" stroke="red" stroke-width="14" opacity="0"></line><line x1="-592" y1="731" x2="-560" y2="712" stroke="#000000" stroke-width="8" stroke-linecap="round"></line></g></g><g id="4b967034-ad17-4c2e-9c41-16d14f22d8fc-106c287d-f836-41ab-b2ab-62f668b42a25"><g cursor="pointer"><line x1="80" y1="527" x2="304" y2="546" stroke="red" stroke-width="14" opacity="0"></line><line x1="80" y1="527" x2="304" y2="546" stroke="#000000" stroke-width="8" stroke-linecap="round"></line></g></g><g id="84362e56-64c9-49bc-bc58-b371f5f01864-8a55c8d7-ab0a-45b3-8726-188675b2a5e8"><g cursor="pointer"><line x1="-672" y1="648" x2="-544" y2="537" stroke="red" stroke-width="14" opacity="0"></line><line x1="-672" y1="648" x2="-544" y2="537" stroke="#000000" stroke-width="8" stroke-linecap="round"></line></g></g><g id="ed8babac-5b24-4a7b-8afb-233ac773ae9d-200859c4-bfb4-4865-8754-dc5ed66194cb"><g cursor="pointer"><line x1="208" y1="213" x2="272" y2="268" stroke="red" stroke-width="14" opacity="0"></line><line x1="208" y1="213" x2="272" y2="268" stroke="#000000" stroke-width="8" stroke-linecap="round"></line></g></g><g id="8150b9a3-8829-4b03-9b9f-559dcd207e86-84362e56-64c9-49bc-bc58-b371f5f01864"><g cursor="pointer"><line x1="-720" y1="472" x2="-672" y2="648" stroke="red" stroke-width="14" opacity="0"></line><line x1="-720" y1="472" x2="-672" y2="648" stroke="#000000" stroke-width="8" stroke-linecap="round"></line></g></g><g id="ed8babac-5b24-4a7b-8afb-233ac773ae9d-6a43db44-64fb-4998-890c-f7ac22d909b4"><g cursor="pointer"><line x1="112" y1="157" x2="96" y2="130" stroke="red" stroke-width="14" opacity="0"></line><line x1="112" y1="157" x2="96" y2="130" stroke="#000000" stroke-width="8" stroke-linecap="round"></line></g></g><g id="917df2ac-fc3e-4e78-806e-569bb4e84917-cbead5cf-2288-4e37-a7df-9e5f5af9dfce"><g cursor="pointer"><line x1="-32" y1="500" x2="-48" y2="490" stroke="red" stroke-width="14" opacity="0"></line><line x1="-32" y1="500" x2="-48" y2="490" stroke="#000000" stroke-width="8" stroke-linecap="round"></line></g></g><g id="c7bb6863-2daf-4669-8eaf-77def200e6c1-dbcf2ab7-d035-40c6-ac8c-69cbcc8891c0"><g cursor="pointer"><line x1="-368" y1="823" x2="-416" y2="925" stroke="red" stroke-width="14" opacity="0"></line><line x1="-368" y1="823" x2="-416" y2="925" stroke="#000000" stroke-width="8" stroke-linecap="round"></line></g></g><g id="dbcf2ab7-d035-40c6-ac8c-69cbcc8891c0-5a5e70c7-0b17-473f-a692-64b477197150"><g cursor="pointer"><line x1="-256" y1="944" x2="-224" y2="888" stroke="red" stroke-width="13" opacity="0"></line><line x1="-256" y1="944" x2="-224" y2="888" stroke="#000000" stroke-width="7" stroke-linecap="round"></line></g></g><g id="8e53cea6-e946-48ba-8915-6c224667f2ad-0f56536f-a467-4727-a493-2ddcff38a275"><g cursor="pointer"><line x1="16" y1="361" x2="0" y2="333" stroke="red" stroke-width="14" opacity="0"></line><line x1="16" y1="361" x2="0" y2="333" stroke="#000000" stroke-width="8" stroke-linecap="round"></line></g></g><g id="37ba83ba-e170-4a09-96c7-81188f12b21c-08c1a4e4-de10-4d70-917b-f27eacf7338f"><g cursor="pointer"><line x1="712" y1="70" x2="536" y2="208" stroke="red" stroke-width="14" opacity="0"></line><line x1="712" y1="70" x2="536" y2="208" stroke="#000000" stroke-width="8" stroke-linecap="round"></line></g></g><g id="08c1a4e4-de10-4d70-917b-f27eacf7338f-77aad33f-dd96-40ec-87fb-07519b82a2e3"><g cursor="pointer"><line x1="531" y1="233" x2="596" y2="270" stroke="red" stroke-width="14" opacity="0"></line><line x1="531" y1="233" x2="596" y2="270" stroke="#000000" stroke-width="8" stroke-linecap="round"></line></g></g><g id="506afbf8-14f8-4047-9e1f-c7f8a810809a-77aad33f-dd96-40ec-87fb-07519b82a2e3"><g cursor="pointer"><line x1="464" y1="398" x2="619" y2="308" stroke="red" stroke-width="14" opacity="0"></line><line x1="464" y1="398" x2="619" y2="308" stroke="#000000" stroke-width="8" stroke-linecap="round"></line></g></g><g id="0f56536f-a467-4727-a493-2ddcff38a275-6a43db44-64fb-4998-890c-f7ac22d909b4"><g cursor="pointer"><line x1="32" y1="259" x2="-48" y2="120" stroke="red" stroke-width="14" opacity="0"></line><line x1="32" y1="259" x2="-48" y2="120" stroke="#000000" stroke-width="8" stroke-linecap="round"></line></g></g></g><g pointer-events="auto"><g><g class="cloud-maps_raptor_node" id="37ba83ba-e170-4a09-96c7-81188f12b21c"><svg x="680" y="-12" width="63" height="95.068"><path fill="#000" stroke="#000000" d="M62.5 85.684q0 6.102-3.216 7.779-3.216 1.677-8.542-1.398l-38.486-22.22q-5.329-3.077-8.542-8.466Q.501 55.991.498 49.887q0-2.693.156-5.172.155-2.479.616-5.185.461-2.707 1.167-4.845.705-2.139 1.893-3.864 1.19-1.726 2.73-2.541 1.541-.816 3.766-.546 2.224.27 4.91 1.818.397.23 1.849 2.162t3.28 4.333q1.827 2.402 4.757 5.187 2.93 2.785 5.878 4.487 2.95 1.703 5.88 2.301 2.929.598 4.756.306 1.827-.292 3.28-.546 1.452-.255 1.85-.026 2.685 1.55 4.909 3.85 2.224 2.301 3.765 4.894 1.542 2.593 2.73 5.693 1.189 3.101 1.894 6.051.705 2.95 1.166 6.192.462 3.242.617 5.897.155 2.655.155 5.352zm-14.09-53.54q0 8.083-4.955 10.944-4.954 2.86-11.955-1.182-7-4.042-11.955-12.623-4.954-8.58-4.954-16.664 0-8.084 4.954-10.944 4.954-2.86 11.955 1.181 7.001 4.042 11.955 12.623 4.954 8.58 4.954 16.665z" stroke-width=".996"></path></svg></g></g><g><g class="cloud-maps_raptor_node" id="08c1a4e4-de10-4d70-917b-f27eacf7338f"><svg x="455" y="160" width="81" height="93.28"><path fill="#ececed" d="m1 19.276 47.4 27.366 19.75-2.28L80 10.154 64.2 1.032 4.95 7.873z" fill-rule="evenodd"></path><path fill="#d2d2d4" d="M1 19.276v45.61l47.4 27.366v-45.61zm47.4 27.367 19.75-2.281v45.61l-19.75 2.28z" fill-rule="evenodd"></path><path fill="#b8b8bb" d="m68.149 44.362 11.85-34.208v45.61l-11.85 34.208z" fill-rule="evenodd"></path><path fill="none" stroke="#83838a" d="m1 19.276 47.4 27.366 19.75-2.28L80 10.154M68.149 44.362v45.61M48.4 46.643v45.61"></path><path fill="none" stroke="#000000" d="m1 64.886 47.4 27.366 19.75-2.28L80 55.764v-45.61L64.2 1.032 4.95 7.873 1 19.276z" stroke-width="2.001"></path><path fill="none" d="M63.701 12.535c-2.409-.04-4.797-.59-6.636-1.651-1.838-1.062-2.791-2.441-2.86-3.832l-13.225.134c.418 1.626-.456 3.341-2.624 4.593-1.374.793-3.07 1.286-4.844 1.48-2.363.256-4.634.914-6.462 1.97-4.814 2.778-4.83 7.278-.05 10.07 2.771 1.6 4.329 3.616 4.715 5.703 3.616.224 7.108 1.122 9.88 2.723 4.834 2.76 12.628 2.75 17.442-.03 1.828-1.056 2.967-2.367 3.411-3.73.336-1.026 1.19-2.005 2.563-2.798 2.168-1.251 5.14-1.756 7.956-1.515l.23-7.636c-2.408-.038-4.797-.589-6.636-1.65-1.838-1.062-2.792-2.441-2.86-3.832z"></path><path fill="#4286c5" d="M65.307 16.25c1.766 1.022 3.993 1.616 6.293 1.783l-.193 6.399c-2.755-.051-5.542.531-7.647 1.749-1.525.882-2.476 1.973-2.848 3.114-.406 1.247-1.444 2.445-3.112 3.41-4.39 2.54-11.5 2.548-15.909.026-2.73-1.578-6.12-2.515-9.657-2.831-.547-2.048-2.168-4.009-4.9-5.589-4.355-2.55-4.338-6.66.051-9.199 1.668-.965 3.739-1.565 5.895-1.8 1.972-.215 3.859-.765 5.384-1.647 2.105-1.218 3.112-2.83 3.024-4.423l11.063-.112c.288 1.33 1.316 2.618 3.082 3.64 1.789 1.034 4.05 1.631 6.38 1.789.273 1.348 1.305 2.656 3.094 3.69z" fill-rule="evenodd"></path><g><path fill="#ffffff" d="M177.61 45.984h2.004v.43h-1.537v.925q.112-.038.223-.056.11-.02.222-.02.632 0 1.001.346.369.346.369.938 0 .609-.38.948-.378.336-1.068.336-.238 0-.485-.04-.246-.041-.508-.122v-.513q.227.124.47.184.242.061.513.061.437 0 .692-.23.255-.23.255-.624t-.255-.624q-.255-.23-.692-.23-.205 0-.41.045-.202.046-.414.142zm4.837 1.739q.367.078.571.326.208.248.208.612 0 .558-.385.864-.384.306-1.091.306-.238 0-.49-.048-.25-.046-.519-.14v-.492q.212.124.465.187t.528.063q.48 0 .73-.19.254-.189.254-.55 0-.334-.235-.521-.233-.19-.65-.19h-.44v-.42h.46q.377 0 .576-.148.2-.152.2-.435 0-.29-.207-.445-.205-.157-.589-.157-.21 0-.45.046-.24.045-.528.142v-.455q.29-.081.543-.122.256-.04.48-.04.582 0 .92.265.34.263.34.713 0 .313-.18.53-.18.216-.51.299z" transform="matrix(3.51516 2.03321 -3.51516 2.03321 -420.18 -441.142)" font-family="Interstate" font-size="5.176"></path></g></svg></g></g><g><g class="cloud-maps_raptor_node" id="77aad33f-dd96-40ec-87fb-07519b82a2e3"><svg x="592" y="176" width="93" height="148.142"><g transform="translate(-90.671 -137.288)"><path fill="#ececed" d="m95.63 154.434 55.389 31.979 27.694-15.99-55.389-31.979z" fill-rule="evenodd"></path><path fill="#d2d2d4" d="m95.63 245.803-3.957 6.852v-4.568z" fill-rule="evenodd"></path><path fill="#d2d2d4" d="m95.63 245.803 55.389 31.979-3.957 6.852-55.142-32.407zm55.389 31.979-3.957 6.852h7.913z" fill-rule="evenodd"></path><path fill="#d2d2d4" d="M95.63 154.434v91.369l55.389 31.979v-91.369z" fill-rule="evenodd"></path><path fill="#b8b8bb" d="m151.019 277.782 3.956 6.852 27.695-15.99v-4.568l-3.957-2.284z" fill-rule="evenodd"></path><path fill="#b8b8bb" d="m151.019 186.413 27.694-15.99v91.37l-27.694 15.989z" fill-rule="evenodd"></path><path fill="none" stroke="#83838a" d="m178.721 261.792-27.694 15.99-55.39-31.98-3.956 6.853m3.957-98.221 55.389 31.979 27.694-15.99m-27.694 15.99v91.368m-3.957 6.853 3.957-6.852 3.956 6.852m23.738-22.842 3.956 6.853" stroke-width="1.015"></path><path fill="none" stroke="#000000" d="M91.673 252.655v-4.568l3.956-2.284v-91.369l27.695-15.99 55.39 31.98v91.368l3.956 2.284v4.569l-27.695 15.99h-7.913z" stroke-width="2.003"></path><ellipse cx="196.431" cy="88.065" fill="#4286c5" rx="22.891" ry="17.846" transform="matrix(.19572 .98066 .96381 .26658 0 0)"></ellipse><ellipse cx="196.431" cy="88.065" fill="#ffffff" rx="19.067" ry="14.865" transform="matrix(.19572 .98066 .96381 .26658 0 0)"></ellipse><path fill="none" stroke="#4286c5" d="M122.305 197.656c-11.608 10.939-3.911 28.05 1.027 36.725" stroke-width="1.967"></path><g transform="translate(1163.852 237.998) scale(1.0152)"><ellipse cx="272.14" cy="-1124.64" fill="#4286c5" rx="3.335" ry="2.648" transform="matrix(.19572 .98066 .96381 .26658 0 0)"></ellipse><ellipse cx="290.38" cy="-1128.297" fill="#4286c5" rx="3.687" ry="2.835" transform="matrix(.19572 .98066 .96381 .26658 0 0)"></ellipse><ellipse cx="290.282" cy="-1113.221" fill="#4286c5" rx="3.51" ry="2.717" transform="matrix(.19572 .98066 .96381 .26658 0 0)"></ellipse><path fill="none" stroke="#4286c5" d="M-1033.087-41.48c4.26 21.344 17.38 30.943 23.61 33.65" stroke-width="1.938"></path><path fill="none" stroke="#4286c5" d="M-1039.896-25.075c12.675 15.122 22.864 16.4 30.106 8.948" stroke-width="1.938"></path></g></g></svg></g></g><g><g class="cloud-maps_raptor_node" id="6a43db44-64fb-4998-890c-f7ac22d909b4"><g><polygon points="0 -37, 160 56, 32 130, -128 37" fill="#ececed"></polygon><polygon points="-128 74, 32 167, 32 130, -128 37" fill="#d2d2d4" stroke="#83838a"></polygon><polygon points="32 167, 160 93, 160 56, 32 130" fill="#b8b8bb" stroke="#83838a"></polygon><polygon points="0 -37, -128 37, -128 74, 32 167, 160 93, 160 56" fill="none" stroke="#000000" stroke-width="2"></polygon></g></g></g><g><g class="cloud-maps_raptor_node" id="d7629b9b-963a-4564-b984-1dba3dbb1a63"><svg x="256" y="185" width="97" height="94" fill-rule="evenodd" stroke-miterlimit="1"><path fill="#ececed" d="M0 18.6v18.6l32.333 18.6h32.334L97 37.2V18.6L64.667 0H32.333L0 18.6Z"></path><path fill="#b8b8bb" d="M64.667 55.8 97 37.2v37.2L64.667 93V55.8Z"></path><path fill="#d2d2d4" d="M32.333 55.8h32.334V93H32.333V55.8ZM0 37.2v37.2L32.333 93V55.8L0 37.2Z"></path><path fill="none" stroke="#83838a" d="M.955 37.877 32.333 55.8h32.334l31.378-17.923M32.333 55.8v36.211M64.667 55.8v36.574" stroke-width="1.04"></path><path fill="#000000" d="M97 18.6v55.8L64.667 93H32.333L0 74.4V18.6L32.333 0h32.334L97 18.6ZM32.865 1.989 1.989 19.751v53.498l30.876 17.762h31.27l30.876-17.762V19.751L64.135 1.989h-31.27Z"></path><path fill="#4286c5" d="M69.912 15.583c11.818 6.798 11.818 17.836 0 24.635-11.817 6.798-31.007 6.798-42.824 0-11.818-6.799-11.818-17.837 0-24.635 11.817-6.799 31.007-6.799 42.824 0Z"></path><path fill="#ffffff" d="M49.584 14.774c1.824 1.049 1.824 2.753 0 3.802-1.824 1.05-4.786 1.05-6.61 0-1.824-1.049-1.824-2.753 0-3.802 1.824-1.05 4.786-1.05 6.61 0Zm10.867 6.251c1.825 1.049 1.825 2.753 0 3.803-1.824 1.049-4.786 1.049-6.61 0-1.824-1.05-1.824-2.754 0-3.803s4.786-1.049 6.61 0Zm10.868 6.251c1.824 1.05 1.824 2.754 0 3.803-1.825 1.049-4.787 1.049-6.611 0-1.824-1.049-1.824-2.753 0-3.803 1.824-1.049 4.786-1.049 6.611 0Zm-32.822 6.378c1.824 1.05 1.824 2.754 0 3.803-1.825 1.05-4.787 1.05-6.611 0-1.824-1.049-1.824-2.753 0-3.803 1.824-1.049 4.786-1.049 6.611 0Z"></path><path fill="#ffffff" d="M47.458 15.878c.453.26.393.717-.133 1.02-.526.303-1.32.337-1.773.076-.452-.26-.392-.717.133-1.019.526-.303 1.321-.337 1.773-.077Z"></path><path fill="#4286c5" d="M48.111 15.621c1.012.582 1.012 1.526 0 2.108-1.011.582-2.653.582-3.664 0-1.012-.582-1.012-1.526 0-2.108 1.011-.582 2.653-.582 3.664 0Zm10.867 6.251c1.012.582 1.012 1.527 0 2.108-1.011.582-2.653.582-3.664 0-1.012-.581-1.012-1.526 0-2.108 1.011-.581 2.653-.581 3.664 0Zm10.868 6.252c1.011.581 1.011 1.526 0 2.108-1.012.582-2.654.582-3.665 0-1.011-.582-1.011-1.527 0-2.108 1.011-.582 2.653-.582 3.665 0Z"></path><path fill="#ffffff" d="M37.024 34.502c1.011.582 1.011 1.526 0 2.108-1.012.582-2.654.582-3.665 0-1.011-.582-1.011-1.526 0-2.108 1.011-.582 2.653-.582 3.665 0Zm15.277-9.33L37.719 33.56l.482.834 14.584-8.388-.484-.834Z"></path><path fill="#ffffff" stroke="#ffffff" d="m46.993 26.089 6.654-1.146-4.324 5.168c.189-1.691-.757-3.313-2.33-4.022Z" stroke-width=".36"></path><path fill="#ffffff" d="m43.488 19.937-6.057 13.797.886.387 6.056-13.798-.885-.386Z"></path><path fill="#ffffff" stroke="#ffffff" d="m39.76 23.812 4.676-4.854-.405 6.716c-.855-1.474-2.582-2.221-4.271-1.862Z" stroke-width=".36"></path><path fill="#ffffff" d="m61.953 30.061-23.985 3.483.14.955 23.985-3.486-.14-.952Z"></path><path fill="#ffffff" stroke="#ffffff" d="m56.68 28.957 6.608 1.387-5.936 3.209c.804-1.503.526-3.358-.672-4.596Z" stroke-width=".36"></path><path fill="#ffffff" stroke="#ffffff" d="m37.96 33.977 13.12-7.547m-13.207 7.497 5.792-13.134m-5.628 13.229 22.478-3.281" stroke-width="1.93"></path></svg></g></g><g><g class="cloud-maps_raptor_node" id="ed8babac-5b24-4a7b-8afb-233ac773ae9d"><svg x="112" y="120" width="128" height="111" fill-rule="evenodd" stroke-linejoin="round" stroke-miterlimit="1.414"><path fill="#b8b8bb" d="M64 74v37l64-37V37L64 74Z"></path><path fill="#d2d2d4" d="M0 37v37l64 37V74L0 37Z"></path><path fill="#ececed" d="M0 37 64 0l64 37-64 37L0 37Z"></path><path fill="#83838a" d="m64 73.407 62.111-35.86.514.889-62.487 36.078h-.276L.743 38.072l.514-.89L64 73.407Z"></path><path fill="#83838a" d="M63.486 74h1.027v36h-1.027z"></path><path fill="#000000" d="M128 37v37l-64 37L0 74V37L64 0l64 37ZM2.054 38.185v34.63L64 108.627l61.946-35.812v-34.63L64 2.373 2.054 38.185Z"></path></svg><svg x="170" y="139" width="54" height="36" style="overflow: visible; cursor: pointer;"><rect transform="matrix(0.707 0.409 -0.707 0.409 0 0)" width="54" height="36" rx="5" ry="5" fill="#4286c5"></rect><text transform="matrix(0.707 0.409 -0.707 0.409 0 0)" font-family="Noto Sans" text-anchor="middle" x="50%" font-weight="normal" font-size="20pt" y="80%" fill="#ffffff">M5</text></svg></g></g><g><g class="cloud-maps_raptor_node" id="506afbf8-14f8-4047-9e1f-c7f8a810809a"><svg x="381" y="314" width="100.626" height="115.695"><path fill="#4286c5" d="M50.313 1.155v56.693L99.41 29.501z" fill-rule="evenodd"></path><path fill="#26527b" d="m1.215 29.501 49.098 28.347V1.155z" fill-rule="evenodd"></path><path fill="none" stroke="#020406" d="M50.313 1.155v56.693"></path><path fill="#26527b" d="M50.313 57.847 99.41 29.501l-24.549 70.866-24.548 14.173z" fill-rule="evenodd"></path><path fill="#326ca2" d="m1.215 29.501 49.098 28.347v56.692l-24.55-14.173z" fill-rule="evenodd"></path><path fill="none" stroke="#0e1e2d" d="m1.215 29.501 49.098 28.347L99.41 29.501 50.313 57.848v56.692"></path><path fill="none" stroke="#000000" d="M50.313 1.155 1.214 29.501l24.549 70.866 24.549 14.173 24.548-14.173 24.549-70.866z" stroke-width="2"></path></svg></g></g><g><g class="cloud-maps_raptor_node" id="106c287d-f836-41ab-b2ab-62f668b42a25"><g><polygon points="336 416, 464 490, 368 546, 240 472" fill="#ececed"></polygon><polygon points="240 509, 368 583, 368 546, 240 472" fill="#d2d2d4" stroke="#83838a"></polygon><polygon points="368 583, 464 527, 464 490, 368 546" fill="#b8b8bb" stroke="#83838a"></polygon><polygon points="336 416, 240 472, 240 509, 368 583, 464 527, 464 490" fill="none" stroke="#000000" stroke-width="2"></polygon></g></g></g><g><g class="cloud-maps_raptor_node" id="0f56536f-a467-4727-a493-2ddcff38a275"><g><polygon points="-48 213, 48 268, -48 324, -144 268" fill="#ececed"></polygon><polygon points="-144 305, -48 361, -48 324, -144 268" fill="#d2d2d4" stroke="#83838a"></polygon><polygon points="-48 361, 48 305, 48 268, -48 324" fill="#b8b8bb" stroke="#83838a"></polygon><polygon points="-48 213, -144 268, -144 305, -48 361, 48 305, 48 268" fill="none" stroke="#000000" stroke-width="2"></polygon></g></g></g><g><g class="cloud-maps_raptor_node" id="8e53cea6-e946-48ba-8915-6c224667f2ad"><g><polygon points="112 305, 272 398, 144 472, -16 379" fill="#ececed"></polygon><polygon points="-16 416, 144 509, 144 472, -16 379" fill="#d2d2d4" stroke="#83838a"></polygon><polygon points="144 509, 272 435, 272 398, 144 472" fill="#b8b8bb" stroke="#83838a"></polygon><polygon points="112 305, -16 379, -16 416, 144 509, 272 435, 272 398" fill="none" stroke="#000000" stroke-width="2"></polygon></g></g></g><g><g class="cloud-maps_raptor_node" id="cbead5cf-2288-4e37-a7df-9e5f5af9dfce"><g><polygon points="-160 333, 0 426, -96 481, -256 389" fill="#ececed"></polygon><polygon points="-256 426, -96 518, -96 481, -256 389" fill="#d2d2d4" stroke="#83838a"></polygon><polygon points="-96 518, 0 463, 0 426, -96 481" fill="#b8b8bb" stroke="#83838a"></polygon><polygon points="-160 333, -256 389, -256 426, -96 518, 0 463, 0 426" fill="none" stroke="#000000" stroke-width="2"></polygon></g></g></g><g><g class="cloud-maps_raptor_node" id="917df2ac-fc3e-4e78-806e-569bb4e84917"><g><polygon points="48 453, 208 546, 112 601, -48 509" fill="#ececed"></polygon><polygon points="-48 546, 112 638, 112 601, -48 509" fill="#d2d2d4" stroke="#83838a"></polygon><polygon points="112 638, 208 583, 208 546, 112 601" fill="#b8b8bb" stroke="#83838a"></polygon><polygon points="48 453, -48 509, -48 546, 112 638, 208 583, 208 546" fill="none" stroke="#000000" stroke-width="2"></polygon></g></g></g><g><g class="cloud-maps_raptor_node" id="12ea3a1f-bd9c-4cd9-9fe5-5c3e5c9d9f1e"><g><polygon points="272 583, 368 638, 240 712, 144 657" fill="#ececed"></polygon><polygon points="144 694, 240 749, 240 712, 144 657" fill="#d2d2d4" stroke="#83838a"></polygon><polygon points="240 749, 368 675, 368 638, 240 712" fill="#b8b8bb" stroke="#83838a"></polygon><polygon points="272 583, 144 657, 144 694, 240 749, 368 675, 368 638" fill="none" stroke="#000000" stroke-width="2"></polygon></g></g></g><g><g class="cloud-maps_raptor_node" id="8a55c8d7-ab0a-45b3-8726-188675b2a5e8"><g><polygon points="-496 379, -336 472, -464 546, -624 453" fill="#ececed"></polygon><polygon points="-624 490, -464 583, -464 546, -624 453" fill="#d2d2d4" stroke="#83838a"></polygon><polygon points="-464 583, -336 509, -336 472, -464 546" fill="#b8b8bb" stroke="#83838a"></polygon><polygon points="-496 379, -624 453, -624 490, -464 583, -336 509, -336 472" fill="none" stroke="#000000" stroke-width="2"></polygon></g></g></g><g><g class="cloud-maps_raptor_node" id="9dd1bcd4-dc01-424c-91f3-de2a5989f41f"><g><polygon points="-288 500, -128 592, -224 648, -384 555" fill="#ececed"></polygon><polygon points="-384 592, -224 685, -224 648, -384 555" fill="#d2d2d4" stroke="#83838a"></polygon><polygon points="-224 685, -128 629, -128 592, -224 648" fill="#b8b8bb" stroke="#83838a"></polygon><polygon points="-288 500, -384 555, -384 592, -224 685, -128 629, -128 592" fill="none" stroke="#000000" stroke-width="2"></polygon></g></g></g><g><g class="cloud-maps_raptor_node" id="557d8842-5786-4ccf-8ca7-ad460164ff6f"><g><polygon points="-32 648, 128 740, 32 796, -128 703" fill="#ececed"></polygon><polygon points="-128 740, 32 833, 32 796, -128 703" fill="#d2d2d4" stroke="#83838a"></polygon><polygon points="32 833, 128 777, 128 740, 32 796" fill="#b8b8bb" stroke="#83838a"></polygon><polygon points="-32 648, -128 703, -128 740, 32 833, 128 777, 128 740" fill="none" stroke="#000000" stroke-width="2"></polygon></g></g></g><g><g class="cloud-maps_raptor_node" id="287b790a-40f7-460a-bed6-db9ef8c869aa"><g><polygon points="-736 426, -640 481, -704 518, -800 463" fill="#ececed"></polygon><polygon points="-800 500, -704 555, -704 518, -800 463" fill="#d2d2d4" stroke="#83838a"></polygon><polygon points="-704 555, -640 518, -640 481, -704 518" fill="#b8b8bb" stroke="#83838a"></polygon><polygon points="-736 426, -800 463, -800 500, -704 555, -640 518, -640 481" fill="none" stroke="#000000" stroke-width="2"></polygon></g></g></g><g><g class="cloud-maps_raptor_node" id="5a5e70c7-0b17-473f-a692-64b477197150"><g><polygon points="-224 740, -32 851, -128 907, -320 796" fill="#ececed"></polygon><polygon points="-320 833, -128 944, -128 907, -320 796" fill="#d2d2d4" stroke="#83838a"></polygon><polygon points="-128 944, -32 888, -32 851, -128 907" fill="#b8b8bb" stroke="#83838a"></polygon><polygon points="-224 740, -320 796, -320 833, -128 944, -32 888, -32 851" fill="none" stroke="#000000" stroke-width="2"></polygon></g></g></g><g><g class="cloud-maps_raptor_node" id="c7bb6863-2daf-4669-8eaf-77def200e6c1"><g><polygon points="-448 648, -288 740, -448 833, -608 740" fill="#ececed"></polygon><polygon points="-608 777, -448 870, -448 833, -608 740" fill="#d2d2d4" stroke="#83838a"></polygon><polygon points="-448 870, -288 777, -288 740, -448 833" fill="#b8b8bb" stroke="#83838a"></polygon><polygon points="-448 648, -608 740, -608 777, -448 870, -288 777, -288 740" fill="none" stroke="#000000" stroke-width="2"></polygon></g></g></g><g><g class="cloud-maps_raptor_node" id="d330e511-362b-423e-8a9f-5c767782491c"><g><polygon points="-688 564, -528 657, -656 731, -816 638" fill="#ececed"></polygon><polygon points="-816 675, -656 768, -656 731, -816 638" fill="#d2d2d4" stroke="#83838a"></polygon><polygon points="-656 768, -528 694, -528 657, -656 731" fill="#b8b8bb" stroke="#83838a"></polygon><polygon points="-688 564, -816 638, -816 675, -656 768, -528 694, -528 657" fill="none" stroke="#000000" stroke-width="2"></polygon></g></g></g><g><g class="cloud-maps_raptor_node" id="dbcf2ab7-d035-40c6-ac8c-69cbcc8891c0"><g><polygon points="-352 888, -224 962, -288 999, -416 925" fill="#ececed"></polygon><polygon points="-416 962, -288 1036, -288 999, -416 925" fill="#d2d2d4" stroke="#83838a"></polygon><polygon points="-288 1036, -224 999, -224 962, -288 999" fill="#b8b8bb" stroke="#83838a"></polygon><polygon points="-352 888, -416 925, -416 962, -288 1036, -224 999, -224 962" fill="none" stroke="#000000" stroke-width="2"></polygon></g></g></g></g><g pointer-events="auto"><g><g class="cloud-maps_raptor_node" id="80ac389f-bd97-4385-ad33-969498f2469e"><svg x="-176" y="823" overflow="visible"><g transform="scale(0.2830000000000002) matrix(0.707 0.409 -0.707 0.409 0 0)"><svg x="-400" y="-200" overflow="visible"><image xlink:href="https://images.cloudcraft.co/a59d314f-165b-4971-9b55-3d71c5db30fc/axios.png" width="800" height="400"></image></svg></g></svg></g></g><g><g class="cloud-maps_raptor_node" id="c30708a9-386f-40b6-b82e-2fdbcfc21c41"><svg x="-448" y="740" overflow="visible"><g transform="scale(0.1415000000000002) matrix(0.707 0.409 -0.707 0.409 0 0)"><svg x="-600" y="-600" overflow="visible"><image xlink:href="https://images.cloudcraft.co/a59d314f-165b-4971-9b55-3d71c5db30fc/Typescript_logo_2020.svg.png" width="1200" height="1200"></image></svg></g></svg></g></g><g><g class="cloud-maps_raptor_node" id="8150b9a3-8829-4b03-9b9f-559dcd207e86"><svg x="-720" y="472" overflow="visible"><g transform="scale(0.14150000000000001) matrix(0.707 0.409 -0.707 0.409 0 0)"><svg x="-362" y="-207" overflow="visible"><image xlink:href="https://images.cloudcraft.co/a59d314f-165b-4971-9b55-3d71c5db30fc/react-router.png" width="724" height="414"></image></svg></g></svg></g></g><g><g class="cloud-maps_raptor_node" id="3efa98e0-9e18-4914-a2c2-d51d21afe21c"><svg x="352" y="481" overflow="visible"><g transform="scale(0.1415000000000002) matrix(0.707 0.409 -0.707 0.409 0 0)"><svg x="-500" y="-300" overflow="visible"><image xlink:href="https://images.cloudcraft.co/a59d314f-165b-4971-9b55-3d71c5db30fc/jwtimg.jpg" width="1000" height="600"></image></svg></g></svg></g></g><g><g class="cloud-maps_raptor_node" id="bdc61cdc-48c1-4c0b-97c3-39ec58d8a891"><svg x="16" y="46" overflow="visible"><g transform="scale(0.14150000000000001) matrix(0.707 0.409 -0.707 0.409 0 0)"><svg x="-640" y="-640" overflow="visible"><image xlink:href="https://images.cloudcraft.co/a59d314f-165b-4971-9b55-3d71c5db30fc/image.png" width="1280" height="1280"></image></svg></g></svg></g></g><g><g class="cloud-maps_raptor_node" id="85ab6146-cefa-4ff9-a169-164e54a787f9"><svg x="128" y="389" overflow="visible"><g transform="scale(0.7075000000000001) matrix(0.707 0.409 -0.707 0.409 0 0)"><svg x="-128" y="-128" overflow="visible"><image xlink:href="https://images.cloudcraft.co/a59d314f-165b-4971-9b55-3d71c5db30fc/mysql-connectorj-logo.png" width="256" height="256"></image></svg></g></svg></g></g><g><g class="cloud-maps_raptor_node" id="9c1f2832-b415-4ad5-982f-5a16c26e0018"><svg x="-480" y="463" overflow="visible"><g transform="scale(0.1415000000000002) matrix(0.707 0.409 -0.707 0.409 0 0)"><svg x="-700" y="-420" overflow="visible"><image xlink:href="https://images.cloudcraft.co/a59d314f-165b-4971-9b55-3d71c5db30fc/1___f27S-qQF2CAASt5bOwqg.png" width="1400" height="840"></image></svg></g></svg></g></g><g><g class="cloud-maps_raptor_node" id="84362e56-64c9-49bc-bc58-b371f5f01864"><svg x="-672" y="648" overflow="visible"><g transform="scale(0.1415000000000002) matrix(0.707 0.409 -0.707 0.409 0 0)"><svg x="-840" y="-420" overflow="visible"><image xlink:href="https://images.cloudcraft.co/a59d314f-165b-4971-9b55-3d71c5db30fc/react-js-and-vite-js-logo-on-night-sky-background.avif" width="1680" height="840"></image></svg></g></svg></g></g><g><g class="cloud-maps_raptor_node" id="42961aa8-1828-4c3c-a520-b652ae4f3fb2"><svg x="-320" y="944" overflow="visible"><g transform="scale(0.14150000000000001) matrix(0.707 0.409 -0.707 0.409 0 0)"><svg x="-600" y="-300" overflow="visible"><image xlink:href="https://images.cloudcraft.co/a59d314f-165b-4971-9b55-3d71c5db30fc/redux-logo.webp" width="1200" height="600"></image></svg></g></svg></g></g><g><g class="cloud-maps_raptor_node" id="a9d25025-6f6c-4a0c-a160-d54d6467e7e6"><svg x="0" y="722" overflow="visible"><g transform="scale(0.1415000000000002) matrix(0.707 0.409 -0.707 0.409 0 0)"><svg x="-763" y="-443" overflow="visible"><image xlink:href="https://images.cloudcraft.co/a59d314f-165b-4971-9b55-3d71c5db30fc/01.png" width="1526" height="886"></image></svg></g></svg></g></g><g><g class="cloud-maps_raptor_node" id="f630e1ea-9e20-40ae-b6a3-d112f3f155da"><svg x="-256" y="574" overflow="visible"><g transform="scale(0.7075000000000001) matrix(0.707 0.409 -0.707 0.409 0 0)"><svg x="-86" y="-147" overflow="visible"><image xlink:href="https://images.cloudcraft.co/a59d314f-165b-4971-9b55-3d71c5db30fc/images.png" width="172" height="294"></image></svg></g></svg></g></g><g><g class="cloud-maps_raptor_node" id="4b967034-ad17-4c2e-9c41-16d14f22d8fc"><svg x="80" y="527" overflow="visible"><g transform="scale(0.7075000000000001) matrix(0.707 0.409 -0.707 0.409 0 0)"><svg x="-153" y="-82.5" overflow="visible"><image xlink:href="https://images.cloudcraft.co/a59d314f-165b-4971-9b55-3d71c5db30fc/images2.png" width="306" height="165"></image></svg></g></svg></g></g><g><g class="cloud-maps_raptor_node" id="285eb8a0-ab03-4074-b606-3e494095a391"><svg x="256" y="648" overflow="visible"><g transform="scale(0.5660000000000002) matrix(0.707 0.409 -0.707 0.409 0 0)"><svg x="-86" y="-147" overflow="visible"><image xlink:href="https://images.cloudcraft.co/a59d314f-165b-4971-9b55-3d71c5db30fc/ima5.png" width="172" height="294"></image></svg></g></svg></g></g><g><g class="cloud-maps_raptor_node" id="7494fcc1-f4d8-4570-9936-db7ef59f8653"><svg x="-48" y="268" overflow="visible"><g transform="scale(0.1415000000000002) matrix(0.707 0.409 -0.707 0.409 0 0)"><svg x="-400" y="-400" overflow="visible"><image xlink:href="https://images.cloudcraft.co/a59d314f-165b-4971-9b55-3d71c5db30fc/%C3%AB%C2%8B%C2%A4%C3%AC%C2%9A%C2%B4%C3%AB%C2%A1%C2%9C%C3%AB%C2%93%C2%9C%20(1).png" width="800" height="800"></image></svg></g></svg></g></g><g><g class="cloud-maps_raptor_node" id="90eeea3b-e4f7-4117-9089-1dd8a5312239"><svg x="-128" y="407" overflow="visible"><g transform="scale(0.7075000000000001) matrix(0.707 0.409 -0.707 0.409 0 0)"><svg x="-156" y="-81" overflow="visible"><image xlink:href="https://images.cloudcraft.co/a59d314f-165b-4971-9b55-3d71c5db30fc/images10.png" width="312" height="162"></image></svg></g></svg></g></g></g><g pointer-events="auto"></g><g pointer-events="auto"><g><g class="cloud-maps_raptor_node" id="3db4f4dc-a8c2-4729-b8b1-161abd248ae4" transform="translate(0 0)"><svg x="-256" y="37" overflow="visible"><text stroke="#ffffff" stroke-width="4" font-family="Noto Sans" y="46.76" font-size="34pt" fill="#ff9800" font-weight="bold" transform="matrix(0.707 -0.409 0.707 0.409 0 0)" paint-order="stroke" xml:space="preserve"><tspan x="8" dy="0">deploy</tspan></text></svg></g></g><g><g class="cloud-maps_raptor_node" id="0a0917d6-54e0-41fc-9213-3843c1f6ebbd" transform="translate(0 0)"><svg x="-560" y="176" overflow="visible"><text stroke="#ffffff" stroke-width="4" font-family="Noto Sans" y="46.76" font-size="34pt" fill="#8bc34a" font-weight="bold" transform="matrix(0.707 -0.409 0.707 0.409 0 0)" paint-order="stroke" xml:space="preserve"><tspan x="8" dy="0">back-end</tspan></text></svg></g></g><g><g class="cloud-maps_raptor_node" id="b0881f04-3f53-43c6-be49-9ed97bc69ad9" transform="translate(0 0)"><svg x="-1008" y="435" overflow="visible"><text stroke="#ffffff" stroke-width="4" font-family="Noto Sans" y="46.76" font-size="34pt" fill="#03a9f4" font-weight="bold" transform="matrix(0.707 -0.409 0.707 0.409 0 0)" paint-order="stroke" xml:space="preserve"><tspan x="8" dy="0">Front-end</tspan></text></svg></g></g><g><g class="cloud-maps_raptor_node" id="2ae57973-caae-4cc2-a3ec-79de36b3687f"><svg x="120" y="199" overflow="visible"><text stroke="#ffffff" stroke-width="4" font-family="Noto Sans" y="36.5" font-size="25pt" fill="#000000" font-weight="bold" transform="matrix(0.707 0.409 -0.707 0.409 0 0)" paint-order="stroke" xml:space="preserve"><tspan x="8" dy="0">EC2</tspan></text></svg></g></g><g><g class="cloud-maps_raptor_node" id="3a6b5aa2-2e23-499a-b6fb-d8e9246a3824" transform="translate(0 0)"><svg x="-272" y="860" overflow="visible"><text stroke="#ffffff" stroke-width="4" font-family="Noto Sans" y="36.5" font-size="25pt" fill="#000000" font-weight="bold" transform="matrix(0.707 0.409 -0.707 0.409 0 0)" paint-order="stroke" xml:space="preserve"><tspan x="8" dy="0">Axios</tspan></text></svg></g></g><g><g class="cloud-maps_raptor_node" id="88a0f9ce-2ac1-461e-9804-6bc7ce64e464" transform="translate(0 0)"><svg x="-432" y="990" overflow="visible"><text stroke="#ffffff" stroke-width="4" font-family="Noto Sans" y="36.5" font-size="25pt" fill="#000000" font-weight="bold" transform="matrix(0.707 0.409 -0.707 0.409 0 0)" paint-order="stroke" xml:space="preserve"><tspan x="8" dy="0">Redux</tspan></text></svg></g></g><g><g class="cloud-maps_raptor_node" id="7f28cca1-b6b3-446a-9bb1-49b02f0c3608" transform="translate(0 0)"><svg x="-624" y="786" overflow="visible"><text stroke="#ffffff" stroke-width="4" font-family="Noto Sans" y="36.5" font-size="25pt" fill="#000000" font-weight="bold" transform="matrix(0.707 0.409 -0.707 0.409 0 0)" paint-order="stroke" xml:space="preserve"><tspan x="8" dy="0">Type-Script</tspan></text></svg></g></g><g><g class="cloud-maps_raptor_node" id="2a499ddc-cd23-46be-8225-8c94f1c9703a" transform="translate(0 0)"><svg x="-864" y="500" overflow="visible"><text stroke="#ffffff" stroke-width="4" font-family="Noto Sans" y="36.5" font-size="25pt" fill="#000000" font-weight="bold" transform="matrix(0.707 0.409 -0.707 0.409 0 0)" paint-order="stroke" xml:space="preserve"><tspan x="8" dy="0">React-router</tspan></text></svg></g></g><g><g class="cloud-maps_raptor_node" id="2b3de8bf-873d-4a03-92cd-50d6ae6cbeea" transform="translate(0 0)"><svg x="272" y="527" overflow="visible"><text stroke="#ffffff" stroke-width="4" font-family="Noto Sans" y="36.5" font-size="25pt" fill="#000000" font-weight="bold" transform="matrix(0.707 0.409 -0.707 0.409 0 0)" paint-order="stroke" xml:space="preserve"><tspan x="8" dy="0">JWT</tspan></text></svg></g></g><g><g class="cloud-maps_raptor_node" id="7769e85b-edd4-47d0-8caf-7c453ddc5a9c"><svg x="403" y="414" overflow="visible"><text stroke="#ffffff" stroke-width="4" font-family="Noto Sans" y="36.5" font-size="25pt" fill="#000000" font-weight="bold" transform="matrix(0.707 0.409 -0.707 0.409 0 0)" paint-order="stroke" xml:space="preserve"><tspan x="8" dy="0">S3</tspan></text></svg></g></g><g><g class="cloud-maps_raptor_node" id="e819235e-be6e-41b8-87db-347f7697bfac"><svg x="416" y="203" overflow="visible"><text stroke="#ffffff" stroke-width="4" font-family="Noto Sans" y="36.5" font-size="25pt" fill="#000000" font-weight="bold" transform="matrix(0.707 0.409 -0.707 0.409 0 0)" paint-order="stroke" xml:space="preserve"><tspan x="8" dy="0">Route 53</tspan></text></svg></g></g><g><g class="cloud-maps_raptor_node" id="f061be74-471a-4e64-beb8-d35a35c1e3a2"><svg x="176" y="231" overflow="visible"><text stroke="#ffffff" stroke-width="4" font-family="Noto Sans" y="36.5" font-size="25pt" fill="#000000" font-weight="bold" transform="matrix(0.707 0.409 -0.707 0.409 0 0)" paint-order="stroke" xml:space="preserve"><tspan x="8" dy="0">Load Balancer</tspan></text></svg></g></g><g><g class="cloud-maps_raptor_node" id="13a2385d-d6af-4551-949d-3637a973dadb"><svg x="539" y="262" overflow="visible"><text stroke="#ffffff" stroke-width="4" font-family="Noto Sans" y="36.5" font-size="25pt" fill="#000000" font-weight="bold" transform="matrix(0.707 0.409 -0.707 0.409 0 0)" paint-order="stroke" xml:space="preserve"><tspan x="8" dy="0">CloudFront</tspan></text></svg></g></g><g><g class="cloud-maps_raptor_node" id="c6a0c391-3299-4133-9fa1-1b82260063a2"><svg x="-608" y="500" overflow="visible"><text stroke="#ffffff" stroke-width="4" font-family="Noto Sans" y="36.5" font-size="25pt" fill="#000000" font-weight="bold" transform="matrix(0.707 0.409 -0.707 0.409 0 0)" paint-order="stroke" xml:space="preserve"><tspan x="8" dy="0">TailwindCss</tspan></text></svg></g></g><g><g class="cloud-maps_raptor_node" id="3e168694-a604-4058-a2e7-79cf0baf3d53"><svg x="-800" y="685" overflow="visible"><text stroke="#ffffff" stroke-width="4" font-family="Noto Sans" y="36.5" font-size="25pt" fill="#000000" font-weight="bold" transform="matrix(0.707 0.409 -0.707 0.409 0 0)" paint-order="stroke" xml:space="preserve"><tspan x="8" dy="0">React+Vite</tspan></text></svg></g></g><g><g class="cloud-maps_raptor_node" id="592e7901-6490-4950-9eb8-0f7684429d4f"><svg x="-160" y="740" overflow="visible"><text stroke="#ffffff" stroke-width="4" font-family="Noto Sans" y="36.5" font-size="25pt" fill="#000000" font-weight="bold" transform="matrix(0.707 0.409 -0.707 0.409 0 0)" paint-order="stroke" xml:space="preserve"><tspan x="8" dy="0">Tanstack Query</tspan></text></svg></g></g><g><g class="cloud-maps_raptor_node" id="bb6b989a-66ee-4c33-9f6e-dbe0b73efd59"><svg x="-384" y="611" overflow="visible"><text stroke="#ffffff" stroke-width="4" font-family="Noto Sans" y="36.5" font-size="25pt" fill="#000000" font-weight="bold" transform="matrix(0.707 0.409 -0.707 0.409 0 0)" paint-order="stroke" xml:space="preserve"><tspan x="8" dy="0">context api</tspan></text></svg></g></g><g><g class="cloud-maps_raptor_node" id="4646c3f4-1756-45aa-8f86-4bc35b5ee689"><svg x="-80" y="546" overflow="visible"><text stroke="#ffffff" stroke-width="4" font-family="Noto Sans" y="36.5" font-size="25pt" fill="#000000" font-weight="bold" transform="matrix(0.707 0.409 -0.707 0.409 0 0)" paint-order="stroke" xml:space="preserve"><tspan x="8" dy="0">java spring boot</tspan></text></svg></g></g><g><g class="cloud-maps_raptor_node" id="f4919134-f2d1-41ff-aef0-2c8173c0a0f6"><svg x="144" y="712" overflow="visible"><text stroke="#ffffff" stroke-width="4" font-family="Noto Sans" y="36.5" font-size="25pt" fill="#000000" font-weight="bold" transform="matrix(0.707 0.409 -0.707 0.409 0 0)" paint-order="stroke" xml:space="preserve"><tspan x="8" dy="0">Java</tspan></text></svg></g></g><g><g class="cloud-maps_raptor_node" id="0c280a72-615a-4309-9449-bfd5745c08e6"><svg x="-160" y="315" overflow="visible"><text stroke="#ffffff" stroke-width="4" font-family="Noto Sans" y="36.5" font-size="25pt" fill="#000000" font-weight="bold" transform="matrix(0.707 0.409 -0.707 0.409 0 0)" paint-order="stroke" xml:space="preserve"><tspan x="8" dy="0">mybatis</tspan></text></svg></g></g><g><g class="cloud-maps_raptor_node" id="acc1d183-a437-4ce1-aa99-83951ba9f9d2"><svg x="-128" y="93" overflow="visible"><text stroke="#ffffff" stroke-width="4" font-family="Noto Sans" y="36.5" font-size="25pt" fill="#000000" font-weight="bold" transform="matrix(0.707 0.409 -0.707 0.409 0 0)" paint-order="stroke" xml:space="preserve"><tspan x="8" dy="0">rds mysql</tspan></text></svg></g></g><g><g class="cloud-maps_raptor_node" id="618071f6-8144-4fdf-90a7-b2503f70fbfa"><svg x="-304" y="416" overflow="visible"><text stroke="#ffffff" stroke-width="4" font-family="Noto Sans" y="36.5" font-size="25pt" fill="#000000" font-weight="bold" transform="matrix(0.707 0.409 -0.707 0.409 0 0)" paint-order="stroke" xml:space="preserve"><tspan x="8" dy="0">spring boot mail</tspan></text></svg></g></g><g><g class="cloud-maps_raptor_node" id="7752081d-7b85-4ba8-821d-2aa7116acbd2"><svg x="-16" y="435" overflow="visible"><text stroke="#ffffff" stroke-width="4" font-family="Noto Sans" y="36.5" font-size="25pt" fill="#000000" font-weight="bold" transform="matrix(0.707 0.409 -0.707 0.409 0 0)" paint-order="stroke" xml:space="preserve"><tspan x="8" dy="0">connector-j</tspan></text></svg></g></g></g></g></svg>